<mxfile host="app.diagrams.net" modified="2024-07-22T18:16:06.402Z" agent="Mozilla/5.0 (Windows NT 10.0; Win64; x64; rv:128.0) Gecko/20100101 Firefox/128.0" etag="Wu_lXp3Ov1gnFxcKUeMZ" version="24.7.1" type="github">
  <diagram name="Page-1" id="4KZJ9ozn9lXyR2gkDZFs">
    <mxGraphModel dx="1444" dy="702" grid="1" gridSize="10" guides="1" tooltips="1" connect="1" arrows="1" fold="1" page="1" pageScale="1" pageWidth="850" pageHeight="1100" math="0" shadow="0">
      <root>
        <mxCell id="0" />
        <mxCell id="1" parent="0" />
        <mxCell id="9xcHes1UZk4AMDX8wHXI-2" value="Main.py" style="rounded=0;whiteSpace=wrap;html=1;" vertex="1" parent="1">
          <mxGeometry x="720" y="20" width="120" height="60" as="geometry" />
        </mxCell>
        <mxCell id="9xcHes1UZk4AMDX8wHXI-4" value="" style="rounded=0;whiteSpace=wrap;html=1;" vertex="1" parent="1">
          <mxGeometry x="120" y="140" width="1350" height="400" as="geometry" />
        </mxCell>
        <mxCell id="9xcHes1UZk4AMDX8wHXI-5" value="" style="rounded=0;whiteSpace=wrap;html=1;" vertex="1" parent="1">
          <mxGeometry x="120" y="120" width="80" height="20" as="geometry" />
        </mxCell>
        <mxCell id="9xcHes1UZk4AMDX8wHXI-7" value="Adapter Layer" style="text;html=1;align=center;verticalAlign=middle;whiteSpace=wrap;rounded=0;" vertex="1" parent="1">
          <mxGeometry x="20" y="310" width="90" height="30" as="geometry" />
        </mxCell>
        <mxCell id="9xcHes1UZk4AMDX8wHXI-29" style="edgeStyle=orthogonalEdgeStyle;rounded=0;orthogonalLoop=1;jettySize=auto;html=1;strokeColor=none;" edge="1" parent="1" source="9xcHes1UZk4AMDX8wHXI-8" target="9xcHes1UZk4AMDX8wHXI-4">
          <mxGeometry relative="1" as="geometry" />
        </mxCell>
        <mxCell id="9xcHes1UZk4AMDX8wHXI-8" value="Content Adapter" style="swimlane;whiteSpace=wrap;html=1;" vertex="1" parent="1">
          <mxGeometry x="500" y="160" width="200" height="200" as="geometry">
            <mxRectangle x="420" y="170" width="130" height="30" as="alternateBounds" />
          </mxGeometry>
        </mxCell>
        <mxCell id="9xcHes1UZk4AMDX8wHXI-9" value="&lt;div align=&quot;left&quot;&gt;Create_deliveries(): Exception&lt;br&gt;&lt;/div&gt;" style="text;html=1;align=left;verticalAlign=middle;whiteSpace=wrap;rounded=0;" vertex="1" parent="9xcHes1UZk4AMDX8wHXI-8">
          <mxGeometry x="15" y="30" width="170" height="30" as="geometry" />
        </mxCell>
        <mxCell id="9xcHes1UZk4AMDX8wHXI-205" style="edgeStyle=orthogonalEdgeStyle;rounded=0;orthogonalLoop=1;jettySize=auto;html=1;entryX=0;entryY=0.5;entryDx=0;entryDy=0;dashed=1;endArrow=block;endFill=0;endSize=4;startSize=0;" edge="1" parent="1" target="9xcHes1UZk4AMDX8wHXI-19">
          <mxGeometry relative="1" as="geometry">
            <mxPoint x="1130" y="265" as="sourcePoint" />
          </mxGeometry>
        </mxCell>
        <mxCell id="9xcHes1UZk4AMDX8wHXI-209" value="Implements" style="edgeLabel;html=1;align=center;verticalAlign=middle;resizable=0;points=[];" vertex="1" connectable="0" parent="9xcHes1UZk4AMDX8wHXI-205">
          <mxGeometry x="-0.3619" relative="1" as="geometry">
            <mxPoint x="18" y="-15" as="offset" />
          </mxGeometry>
        </mxCell>
        <mxCell id="9xcHes1UZk4AMDX8wHXI-16" value="&lt;div&gt;&amp;lt;&amp;lt;Interface&amp;gt;&amp;gt;&lt;/div&gt;&lt;div&gt;IRequest&lt;br&gt;&lt;/div&gt;" style="swimlane;whiteSpace=wrap;html=1;startSize=50;" vertex="1" parent="1">
          <mxGeometry x="870" y="160" width="260" height="210" as="geometry" />
        </mxCell>
        <mxCell id="9xcHes1UZk4AMDX8wHXI-17" value="+ Create_deliveries_subscription: Exception" style="text;html=1;align=center;verticalAlign=middle;whiteSpace=wrap;rounded=0;" vertex="1" parent="9xcHes1UZk4AMDX8wHXI-16">
          <mxGeometry x="10" y="60" width="240" height="30" as="geometry" />
        </mxCell>
        <mxCell id="9xcHes1UZk4AMDX8wHXI-19" value="&lt;div&gt;&amp;lt;&amp;lt;Interface&amp;gt;&amp;gt;&lt;/div&gt;&lt;div&gt;IRest&lt;br&gt;&lt;/div&gt;" style="swimlane;whiteSpace=wrap;html=1;startSize=40;" vertex="1" parent="1">
          <mxGeometry x="1230" y="220" width="200" height="90" as="geometry" />
        </mxCell>
        <mxCell id="9xcHes1UZk4AMDX8wHXI-22" value="&lt;div align=&quot;left&quot;&gt;+ restRx(dict, kwargs): dict&lt;/div&gt;&lt;div align=&quot;left&quot;&gt;+ restRx(dict,kwargs): dict&lt;br&gt;&lt;/div&gt;" style="text;html=1;align=left;verticalAlign=middle;whiteSpace=wrap;rounded=0;" vertex="1" parent="9xcHes1UZk4AMDX8wHXI-19">
          <mxGeometry x="5" y="50" width="180" height="30" as="geometry" />
        </mxCell>
        <mxCell id="9xcHes1UZk4AMDX8wHXI-30" style="edgeStyle=orthogonalEdgeStyle;rounded=0;orthogonalLoop=1;jettySize=auto;html=1;entryX=0.4;entryY=0;entryDx=0;entryDy=0;entryPerimeter=0;exitX=0.5;exitY=0;exitDx=0;exitDy=0;dashed=1;" edge="1" parent="1" source="9xcHes1UZk4AMDX8wHXI-8" target="9xcHes1UZk4AMDX8wHXI-19">
          <mxGeometry relative="1" as="geometry">
            <Array as="points">
              <mxPoint x="600" y="110" />
              <mxPoint x="1310" y="110" />
            </Array>
          </mxGeometry>
        </mxCell>
        <mxCell id="9xcHes1UZk4AMDX8wHXI-33" value="Use" style="edgeLabel;html=1;align=center;verticalAlign=middle;resizable=0;points=[];" vertex="1" connectable="0" parent="9xcHes1UZk4AMDX8wHXI-30">
          <mxGeometry x="0.0668" y="2" relative="1" as="geometry">
            <mxPoint x="-84" y="2" as="offset" />
          </mxGeometry>
        </mxCell>
        <mxCell id="9xcHes1UZk4AMDX8wHXI-51" style="edgeStyle=orthogonalEdgeStyle;rounded=0;orthogonalLoop=1;jettySize=auto;html=1;dashed=1;exitX=0;exitY=0.5;exitDx=0;exitDy=0;" edge="1" parent="1" source="9xcHes1UZk4AMDX8wHXI-37">
          <mxGeometry relative="1" as="geometry">
            <mxPoint x="1125" y="445.0769230769231" as="sourcePoint" />
            <mxPoint x="610" y="360" as="targetPoint" />
          </mxGeometry>
        </mxCell>
        <mxCell id="9xcHes1UZk4AMDX8wHXI-53" value="create" style="edgeLabel;html=1;align=center;verticalAlign=middle;resizable=0;points=[];" vertex="1" connectable="0" parent="9xcHes1UZk4AMDX8wHXI-51">
          <mxGeometry x="0.8461" y="-5" relative="1" as="geometry">
            <mxPoint y="-1" as="offset" />
          </mxGeometry>
        </mxCell>
        <mxCell id="9xcHes1UZk4AMDX8wHXI-55" style="edgeStyle=orthogonalEdgeStyle;rounded=0;orthogonalLoop=1;jettySize=auto;html=1;dashed=1;" edge="1" parent="1">
          <mxGeometry relative="1" as="geometry">
            <mxPoint x="1130" y="340" as="targetPoint" />
            <mxPoint x="1287.5" y="400" as="sourcePoint" />
            <Array as="points">
              <mxPoint x="1288" y="340" />
            </Array>
          </mxGeometry>
        </mxCell>
        <mxCell id="9xcHes1UZk4AMDX8wHXI-195" value="Create" style="edgeLabel;html=1;align=center;verticalAlign=middle;resizable=0;points=[];" vertex="1" connectable="0" parent="9xcHes1UZk4AMDX8wHXI-55">
          <mxGeometry x="0.3041" y="1" relative="1" as="geometry">
            <mxPoint as="offset" />
          </mxGeometry>
        </mxCell>
        <mxCell id="9xcHes1UZk4AMDX8wHXI-196" style="edgeStyle=orthogonalEdgeStyle;rounded=0;orthogonalLoop=1;jettySize=auto;html=1;dashed=1;" edge="1" parent="1" source="9xcHes1UZk4AMDX8wHXI-37">
          <mxGeometry relative="1" as="geometry">
            <mxPoint x="450" y="470" as="targetPoint" />
            <Array as="points">
              <mxPoint x="1010" y="470" />
              <mxPoint x="1010" y="470" />
            </Array>
          </mxGeometry>
        </mxCell>
        <mxCell id="9xcHes1UZk4AMDX8wHXI-198" value="Create" style="edgeLabel;html=1;align=center;verticalAlign=middle;resizable=0;points=[];" vertex="1" connectable="0" parent="9xcHes1UZk4AMDX8wHXI-196">
          <mxGeometry x="0.9238" y="1" relative="1" as="geometry">
            <mxPoint x="13" y="-1" as="offset" />
          </mxGeometry>
        </mxCell>
        <mxCell id="9xcHes1UZk4AMDX8wHXI-37" value="&lt;div&gt;UsecaseFactory&lt;br&gt;&lt;/div&gt;" style="swimlane;whiteSpace=wrap;html=1;startSize=30;" vertex="1" parent="1">
          <mxGeometry x="1185" y="400" width="245" height="90" as="geometry" />
        </mxCell>
        <mxCell id="9xcHes1UZk4AMDX8wHXI-38" value="&lt;div align=&quot;left&quot;&gt;+ create_request(): RestAdapter&lt;br&gt;&lt;/div&gt;&lt;div align=&quot;left&quot;&gt;+ create_deliveriesManager(): Exception&lt;br&gt;&lt;/div&gt;" style="text;html=1;align=left;verticalAlign=middle;whiteSpace=wrap;rounded=0;" vertex="1" parent="9xcHes1UZk4AMDX8wHXI-37">
          <mxGeometry x="5" y="40" width="225" height="30" as="geometry" />
        </mxCell>
        <mxCell id="9xcHes1UZk4AMDX8wHXI-43" value="&lt;div&gt;&amp;lt;&amp;lt;Interface&amp;gt;&amp;gt;&lt;/div&gt;&lt;div&gt;IAdapterFactory&lt;br&gt;&lt;/div&gt;" style="swimlane;whiteSpace=wrap;html=1;startSize=40;" vertex="1" parent="1">
          <mxGeometry x="250" y="230" width="200" height="90" as="geometry" />
        </mxCell>
        <mxCell id="9xcHes1UZk4AMDX8wHXI-44" value="&lt;div align=&quot;left&quot;&gt;+ create_deliveries_entity()&lt;br&gt;&lt;/div&gt;" style="text;html=1;align=left;verticalAlign=middle;whiteSpace=wrap;rounded=0;" vertex="1" parent="9xcHes1UZk4AMDX8wHXI-43">
          <mxGeometry x="5" y="50" width="180" height="30" as="geometry" />
        </mxCell>
        <mxCell id="9xcHes1UZk4AMDX8wHXI-47" style="edgeStyle=orthogonalEdgeStyle;rounded=0;orthogonalLoop=1;jettySize=auto;html=1;entryX=0.5;entryY=1;entryDx=0;entryDy=0;dashed=1;endArrow=block;endFill=0;" edge="1" parent="1" source="9xcHes1UZk4AMDX8wHXI-45" target="9xcHes1UZk4AMDX8wHXI-43">
          <mxGeometry relative="1" as="geometry" />
        </mxCell>
        <mxCell id="9xcHes1UZk4AMDX8wHXI-48" value="Implements" style="edgeLabel;html=1;align=center;verticalAlign=middle;resizable=0;points=[];" vertex="1" connectable="0" parent="9xcHes1UZk4AMDX8wHXI-47">
          <mxGeometry x="-0.0074" y="-2" relative="1" as="geometry">
            <mxPoint as="offset" />
          </mxGeometry>
        </mxCell>
        <mxCell id="9xcHes1UZk4AMDX8wHXI-184" style="edgeStyle=orthogonalEdgeStyle;rounded=0;orthogonalLoop=1;jettySize=auto;html=1;entryX=0.25;entryY=0;entryDx=0;entryDy=0;exitX=0;exitY=0.75;exitDx=0;exitDy=0;dashed=1;" edge="1" parent="1" source="9xcHes1UZk4AMDX8wHXI-45" target="9xcHes1UZk4AMDX8wHXI-166">
          <mxGeometry relative="1" as="geometry">
            <mxPoint x="230" y="1030" as="targetPoint" />
            <Array as="points">
              <mxPoint x="250" y="460" />
              <mxPoint x="222" y="460" />
            </Array>
          </mxGeometry>
        </mxCell>
        <mxCell id="9xcHes1UZk4AMDX8wHXI-185" value="Create" style="edgeLabel;html=1;align=center;verticalAlign=middle;resizable=0;points=[];" vertex="1" connectable="0" parent="9xcHes1UZk4AMDX8wHXI-184">
          <mxGeometry x="-0.0075" relative="1" as="geometry">
            <mxPoint as="offset" />
          </mxGeometry>
        </mxCell>
        <mxCell id="9xcHes1UZk4AMDX8wHXI-45" value="&lt;div&gt;AdapterFactory&lt;br&gt;&lt;/div&gt;" style="swimlane;whiteSpace=wrap;html=1;startSize=30;" vertex="1" parent="1">
          <mxGeometry x="250" y="410" width="200" height="90" as="geometry" />
        </mxCell>
        <mxCell id="9xcHes1UZk4AMDX8wHXI-46" value="&lt;div align=&quot;left&quot;&gt;+ create_deliveries_entity()&lt;br&gt;&lt;/div&gt;" style="text;html=1;align=left;verticalAlign=middle;whiteSpace=wrap;rounded=0;" vertex="1" parent="9xcHes1UZk4AMDX8wHXI-45">
          <mxGeometry x="10" y="40" width="180" height="30" as="geometry" />
        </mxCell>
        <mxCell id="9xcHes1UZk4AMDX8wHXI-58" value="" style="rounded=0;whiteSpace=wrap;html=1;" vertex="1" parent="1">
          <mxGeometry x="370" y="660" width="1100" height="510" as="geometry" />
        </mxCell>
        <mxCell id="9xcHes1UZk4AMDX8wHXI-59" value="" style="rounded=0;whiteSpace=wrap;html=1;" vertex="1" parent="1">
          <mxGeometry x="370" y="640" width="80" height="20" as="geometry" />
        </mxCell>
        <mxCell id="9xcHes1UZk4AMDX8wHXI-60" value="Usecase Layer" style="text;html=1;align=center;verticalAlign=middle;whiteSpace=wrap;rounded=0;" vertex="1" parent="1">
          <mxGeometry x="270" y="890" width="100" height="30" as="geometry" />
        </mxCell>
        <mxCell id="9xcHes1UZk4AMDX8wHXI-61" value="&lt;div&gt;&amp;lt;&amp;lt;Interface&amp;gt;&amp;gt;&lt;/div&gt;&lt;div&gt;IDeliveries&lt;br&gt;&lt;/div&gt;" style="swimlane;whiteSpace=wrap;html=1;startSize=40;" vertex="1" parent="1">
          <mxGeometry x="400" y="750" width="230" height="160" as="geometry" />
        </mxCell>
        <mxCell id="9xcHes1UZk4AMDX8wHXI-62" value="&lt;div align=&quot;left&quot;&gt;Create_deliveries_callback(): Exception&lt;br&gt;&lt;/div&gt;" style="text;html=1;align=left;verticalAlign=middle;whiteSpace=wrap;rounded=0;" vertex="1" parent="9xcHes1UZk4AMDX8wHXI-61">
          <mxGeometry x="5" y="50" width="265" height="30" as="geometry" />
        </mxCell>
        <mxCell id="9xcHes1UZk4AMDX8wHXI-153" style="edgeStyle=orthogonalEdgeStyle;rounded=0;orthogonalLoop=1;jettySize=auto;html=1;dashed=1;exitX=1;exitY=0.75;exitDx=0;exitDy=0;" edge="1" parent="1" source="9xcHes1UZk4AMDX8wHXI-138">
          <mxGeometry relative="1" as="geometry">
            <mxPoint x="1030" y="910" as="targetPoint" />
            <mxPoint x="870" y="970" as="sourcePoint" />
            <Array as="points">
              <mxPoint x="895" y="970" />
              <mxPoint x="1030" y="970" />
            </Array>
          </mxGeometry>
        </mxCell>
        <mxCell id="9xcHes1UZk4AMDX8wHXI-154" value="use" style="edgeLabel;html=1;align=center;verticalAlign=middle;resizable=0;points=[];" vertex="1" connectable="0" parent="9xcHes1UZk4AMDX8wHXI-153">
          <mxGeometry x="0.7147" y="6" relative="1" as="geometry">
            <mxPoint y="1" as="offset" />
          </mxGeometry>
        </mxCell>
        <mxCell id="9xcHes1UZk4AMDX8wHXI-160" value="Text" style="edgeLabel;html=1;align=center;verticalAlign=middle;resizable=0;points=[];" vertex="1" connectable="0" parent="9xcHes1UZk4AMDX8wHXI-153">
          <mxGeometry x="0.6735" y="7" relative="1" as="geometry">
            <mxPoint y="-1" as="offset" />
          </mxGeometry>
        </mxCell>
        <mxCell id="9xcHes1UZk4AMDX8wHXI-161" value="Use" style="edgeLabel;html=1;align=center;verticalAlign=middle;resizable=0;points=[];" vertex="1" connectable="0" parent="9xcHes1UZk4AMDX8wHXI-153">
          <mxGeometry x="0.6735" y="7" relative="1" as="geometry">
            <mxPoint y="-1" as="offset" />
          </mxGeometry>
        </mxCell>
        <mxCell id="9xcHes1UZk4AMDX8wHXI-158" style="edgeStyle=orthogonalEdgeStyle;rounded=0;orthogonalLoop=1;jettySize=auto;html=1;entryX=0.5;entryY=1;entryDx=0;entryDy=0;dashed=1;" edge="1" parent="1" source="9xcHes1UZk4AMDX8wHXI-138" target="9xcHes1UZk4AMDX8wHXI-61">
          <mxGeometry relative="1" as="geometry">
            <Array as="points">
              <mxPoint x="515" y="970" />
            </Array>
          </mxGeometry>
        </mxCell>
        <mxCell id="9xcHes1UZk4AMDX8wHXI-159" value="Use" style="edgeLabel;html=1;align=center;verticalAlign=middle;resizable=0;points=[];" vertex="1" connectable="0" parent="9xcHes1UZk4AMDX8wHXI-158">
          <mxGeometry x="0.6119" y="-1" relative="1" as="geometry">
            <mxPoint x="-1" y="-11" as="offset" />
          </mxGeometry>
        </mxCell>
        <mxCell id="9xcHes1UZk4AMDX8wHXI-162" style="edgeStyle=orthogonalEdgeStyle;rounded=0;orthogonalLoop=1;jettySize=auto;html=1;entryX=0.5;entryY=1;entryDx=0;entryDy=0;dashed=1;" edge="1" parent="1" source="9xcHes1UZk4AMDX8wHXI-138" target="9xcHes1UZk4AMDX8wHXI-150">
          <mxGeometry relative="1" as="geometry">
            <Array as="points">
              <mxPoint x="1323" y="1000" />
            </Array>
          </mxGeometry>
        </mxCell>
        <mxCell id="9xcHes1UZk4AMDX8wHXI-165" value="Use" style="edgeLabel;html=1;align=center;verticalAlign=middle;resizable=0;points=[];" vertex="1" connectable="0" parent="9xcHes1UZk4AMDX8wHXI-162">
          <mxGeometry x="0.7682" y="1" relative="1" as="geometry">
            <mxPoint as="offset" />
          </mxGeometry>
        </mxCell>
        <mxCell id="9xcHes1UZk4AMDX8wHXI-138" value="DeliveriesManager" style="swimlane;whiteSpace=wrap;html=1;startSize=30;" vertex="1" parent="1">
          <mxGeometry x="665" y="860" width="230" height="160" as="geometry" />
        </mxCell>
        <mxCell id="9xcHes1UZk4AMDX8wHXI-139" value="&lt;div align=&quot;left&quot;&gt;Create_deliveries_callback(): Exception&lt;br&gt;&lt;/div&gt;" style="text;html=1;align=left;verticalAlign=middle;whiteSpace=wrap;rounded=0;" vertex="1" parent="9xcHes1UZk4AMDX8wHXI-138">
          <mxGeometry x="10" y="40" width="220" height="30" as="geometry" />
        </mxCell>
        <mxCell id="9xcHes1UZk4AMDX8wHXI-146" value="&lt;div&gt;&amp;lt;&amp;lt;Interface&amp;gt;&amp;gt;&lt;/div&gt;&lt;div&gt;IRequest&lt;br&gt;&lt;/div&gt;" style="swimlane;whiteSpace=wrap;html=1;startSize=40;" vertex="1" parent="1">
          <mxGeometry x="930" y="750" width="250" height="160" as="geometry" />
        </mxCell>
        <mxCell id="9xcHes1UZk4AMDX8wHXI-147" value="&lt;div align=&quot;left&quot;&gt;+ Create_deliveries_subscription: Exception&lt;/div&gt;" style="text;html=1;align=left;verticalAlign=middle;whiteSpace=wrap;rounded=0;" vertex="1" parent="9xcHes1UZk4AMDX8wHXI-146">
          <mxGeometry x="5" y="50" width="255" height="30" as="geometry" />
        </mxCell>
        <mxCell id="9xcHes1UZk4AMDX8wHXI-152" style="edgeStyle=orthogonalEdgeStyle;rounded=0;orthogonalLoop=1;jettySize=auto;html=1;exitX=0.5;exitY=1;exitDx=0;exitDy=0;" edge="1" parent="9xcHes1UZk4AMDX8wHXI-146" source="9xcHes1UZk4AMDX8wHXI-147" target="9xcHes1UZk4AMDX8wHXI-147">
          <mxGeometry relative="1" as="geometry" />
        </mxCell>
        <mxCell id="9xcHes1UZk4AMDX8wHXI-150" value="&lt;div&gt;UsecaseFactory&lt;br&gt;&lt;/div&gt;" style="swimlane;whiteSpace=wrap;html=1;startSize=30;" vertex="1" parent="1">
          <mxGeometry x="1200" y="790" width="245" height="90" as="geometry" />
        </mxCell>
        <mxCell id="9xcHes1UZk4AMDX8wHXI-151" value="&lt;div align=&quot;left&quot;&gt;+ create_request(): RestAdapter&lt;br&gt;&lt;/div&gt;&lt;div align=&quot;left&quot;&gt;+ create_deliveriesManager(): Exception&lt;br&gt;&lt;/div&gt;" style="text;html=1;align=left;verticalAlign=middle;whiteSpace=wrap;rounded=0;" vertex="1" parent="9xcHes1UZk4AMDX8wHXI-150">
          <mxGeometry x="5" y="40" width="225" height="30" as="geometry" />
        </mxCell>
        <mxCell id="9xcHes1UZk4AMDX8wHXI-155" style="edgeStyle=orthogonalEdgeStyle;rounded=0;orthogonalLoop=1;jettySize=auto;html=1;dashed=1;endArrow=block;endFill=0;" edge="1" parent="1">
          <mxGeometry relative="1" as="geometry">
            <mxPoint x="530.000909090909" y="360" as="sourcePoint" />
            <mxPoint x="530.000909090909" y="750" as="targetPoint" />
            <Array as="points">
              <mxPoint x="529.91" y="460" />
              <mxPoint x="529.91" y="460" />
            </Array>
          </mxGeometry>
        </mxCell>
        <mxCell id="9xcHes1UZk4AMDX8wHXI-156" value="Implements" style="edgeLabel;html=1;align=center;verticalAlign=middle;resizable=0;points=[];" vertex="1" connectable="0" parent="9xcHes1UZk4AMDX8wHXI-155">
          <mxGeometry x="0.2205" y="-1" relative="1" as="geometry">
            <mxPoint as="offset" />
          </mxGeometry>
        </mxCell>
        <mxCell id="9xcHes1UZk4AMDX8wHXI-166" value="" style="rounded=0;whiteSpace=wrap;html=1;" vertex="1" parent="1">
          <mxGeometry x="120" y="1280" width="410" height="200" as="geometry" />
        </mxCell>
        <mxCell id="9xcHes1UZk4AMDX8wHXI-167" value="" style="rounded=0;whiteSpace=wrap;html=1;" vertex="1" parent="1">
          <mxGeometry x="120" y="1260" width="80" height="20" as="geometry" />
        </mxCell>
        <mxCell id="9xcHes1UZk4AMDX8wHXI-168" value="Entity Layer" style="text;html=1;align=center;verticalAlign=middle;whiteSpace=wrap;rounded=0;" vertex="1" parent="1">
          <mxGeometry x="20" y="1390" width="100" height="30" as="geometry" />
        </mxCell>
        <mxCell id="9xcHes1UZk4AMDX8wHXI-169" value="IDeliveries" style="swimlane;whiteSpace=wrap;html=1;startSize=30;" vertex="1" parent="1">
          <mxGeometry x="150" y="1325" width="130" height="110" as="geometry" />
        </mxCell>
        <mxCell id="9xcHes1UZk4AMDX8wHXI-170" value="+ deliveries_entity" style="text;html=1;align=left;verticalAlign=middle;whiteSpace=wrap;rounded=0;" vertex="1" parent="9xcHes1UZk4AMDX8wHXI-169">
          <mxGeometry x="10" y="40" width="110" height="30" as="geometry" />
        </mxCell>
        <mxCell id="9xcHes1UZk4AMDX8wHXI-175" style="edgeStyle=orthogonalEdgeStyle;rounded=0;orthogonalLoop=1;jettySize=auto;html=1;entryX=1;entryY=0.5;entryDx=0;entryDy=0;dashed=1;endArrow=block;endFill=0;" edge="1" parent="1" source="9xcHes1UZk4AMDX8wHXI-171" target="9xcHes1UZk4AMDX8wHXI-169">
          <mxGeometry relative="1" as="geometry" />
        </mxCell>
        <mxCell id="9xcHes1UZk4AMDX8wHXI-182" value="Implements" style="edgeLabel;html=1;align=center;verticalAlign=middle;resizable=0;points=[];" vertex="1" connectable="0" parent="9xcHes1UZk4AMDX8wHXI-175">
          <mxGeometry x="0.3259" y="4" relative="1" as="geometry">
            <mxPoint x="15" y="-16" as="offset" />
          </mxGeometry>
        </mxCell>
        <mxCell id="9xcHes1UZk4AMDX8wHXI-171" value="Deliveries" style="swimlane;whiteSpace=wrap;html=1;startSize=30;" vertex="1" parent="1">
          <mxGeometry x="370" y="1327.5" width="130" height="105" as="geometry" />
        </mxCell>
        <mxCell id="9xcHes1UZk4AMDX8wHXI-172" value="+ deliveries_entity" style="text;html=1;align=left;verticalAlign=middle;whiteSpace=wrap;rounded=0;" vertex="1" parent="9xcHes1UZk4AMDX8wHXI-171">
          <mxGeometry x="10" y="40" width="170" height="30" as="geometry" />
        </mxCell>
        <mxCell id="9xcHes1UZk4AMDX8wHXI-181" value="Text" style="text;html=1;align=center;verticalAlign=middle;whiteSpace=wrap;rounded=0;" vertex="1" parent="1">
          <mxGeometry x="460" y="1340" width="60" height="30" as="geometry" />
        </mxCell>
        <mxCell id="9xcHes1UZk4AMDX8wHXI-186" style="edgeStyle=orthogonalEdgeStyle;rounded=0;orthogonalLoop=1;jettySize=auto;html=1;entryX=0.5;entryY=0;entryDx=0;entryDy=0;dashed=1;endArrow=classic;endFill=1;" edge="1" parent="1" source="9xcHes1UZk4AMDX8wHXI-2" target="9xcHes1UZk4AMDX8wHXI-138">
          <mxGeometry relative="1" as="geometry" />
        </mxCell>
        <mxCell id="9xcHes1UZk4AMDX8wHXI-187" value="Create" style="edgeLabel;html=1;align=center;verticalAlign=middle;resizable=0;points=[];" vertex="1" connectable="0" parent="9xcHes1UZk4AMDX8wHXI-186">
          <mxGeometry x="-0.2199" relative="1" as="geometry">
            <mxPoint as="offset" />
          </mxGeometry>
        </mxCell>
        <mxCell id="9xcHes1UZk4AMDX8wHXI-188" style="edgeStyle=orthogonalEdgeStyle;rounded=0;orthogonalLoop=1;jettySize=auto;html=1;entryX=0.5;entryY=1;entryDx=0;entryDy=0;exitX=0.75;exitY=1;exitDx=0;exitDy=0;dashed=1;" edge="1" parent="1" source="9xcHes1UZk4AMDX8wHXI-2" target="9xcHes1UZk4AMDX8wHXI-37">
          <mxGeometry relative="1" as="geometry" />
        </mxCell>
        <mxCell id="9xcHes1UZk4AMDX8wHXI-189" value="Create" style="edgeLabel;html=1;align=center;verticalAlign=middle;resizable=0;points=[];" vertex="1" connectable="0" parent="9xcHes1UZk4AMDX8wHXI-188">
          <mxGeometry x="0.1173" y="-1" relative="1" as="geometry">
            <mxPoint x="11" as="offset" />
          </mxGeometry>
        </mxCell>
        <mxCell id="9xcHes1UZk4AMDX8wHXI-199" style="edgeStyle=orthogonalEdgeStyle;rounded=0;orthogonalLoop=1;jettySize=auto;html=1;dashed=1;endArrow=block;endFill=0;" edge="1" parent="1" source="9xcHes1UZk4AMDX8wHXI-16" target="9xcHes1UZk4AMDX8wHXI-146">
          <mxGeometry relative="1" as="geometry">
            <Array as="points">
              <mxPoint x="1055" y="460" />
              <mxPoint x="1055" y="460" />
            </Array>
          </mxGeometry>
        </mxCell>
        <mxCell id="9xcHes1UZk4AMDX8wHXI-200" value="Implements" style="edgeLabel;html=1;align=center;verticalAlign=middle;resizable=0;points=[];" vertex="1" connectable="0" parent="9xcHes1UZk4AMDX8wHXI-199">
          <mxGeometry x="0.2502" relative="1" as="geometry">
            <mxPoint y="-7" as="offset" />
          </mxGeometry>
        </mxCell>
        <mxCell id="9xcHes1UZk4AMDX8wHXI-202" style="edgeStyle=orthogonalEdgeStyle;rounded=0;orthogonalLoop=1;jettySize=auto;html=1;entryX=0.5;entryY=0;entryDx=0;entryDy=0;dashed=1;endArrow=block;endFill=0;" edge="1" parent="1">
          <mxGeometry relative="1" as="geometry">
            <mxPoint x="1360.5769230769229" y="490" as="sourcePoint" />
            <mxPoint x="1360" y="790" as="targetPoint" />
          </mxGeometry>
        </mxCell>
        <mxCell id="9xcHes1UZk4AMDX8wHXI-203" value="Implements" style="edgeLabel;html=1;align=center;verticalAlign=middle;resizable=0;points=[];" vertex="1" connectable="0" parent="9xcHes1UZk4AMDX8wHXI-202">
          <mxGeometry x="-0.2369" y="1" relative="1" as="geometry">
            <mxPoint y="1" as="offset" />
          </mxGeometry>
        </mxCell>
      </root>
    </mxGraphModel>
  </diagram>
</mxfile>
